<svg xmlns="http://www.w3.org/2000/svg" viewBox="0 0 200 180" fill="none" stroke="currentColor" stroke-width="1.5" stroke-linejoin="round" stroke-linecap="round" aria-label="Australia outline">
  <path d="M35 70 L28 80 L25 95 L30 110 L35 120 L40 128 L48 135 L58 140 L68 143 L78 146 L90 148 L100 150 L112 151 L125 150 L138 148 L150 144 L160 138 L168 130 L172 120 L173 108 L171 96 L168 86 L163 78 L156 72 L148 67 L140 64 L132 61 L124 58 L118 54 L112 48 L108 42 L102 38 L95 37 L88 38 L80 40 L72 44 L66 49 L60 54 L54 58 L48 62 L42 66 Z"></path>
  <path d="M143 155 L148 160 L155 164 L160 167 L163 170 L158 172 L150 170 L143 167 L138 162 Z" opacity="0.85"></path>
</svg>